<svg version="1" xmlns="http://www.w3.org/2000/svg" width="296" height="296" viewBox="0 0 222.000000 222.000000"><path d="M0 111v111h222V0H0v111zm114.3-97.6c3.6 1.3 7.9 3.2 9.6 4.1 3.1 1.6 3.2 1.7 1.7 4-1.5 2.3-1.4 2.4 3.7 5.7 2.8 1.8 6.7 4.6 8.5 6.2 3.2 2.8 3.3 2.8 5.3 1 1.9-1.7 2.1-1.7 6.3 2.5 2.4 2.4 4.9 5.4 5.7 6.7 1.1 2.1 1 2.6-.7 3.9-1.9 1.4-1.9 1.5.4 5.2 1.3 2.1 3 5.5 3.9 7.5 1.7 3.9 3.1 4.6 5.1 2.6 1.7-1.7 2.6-.4 5.2 7.5 2.4 7.4 2.2 9.7-1.1 9.7-1.9 0-2 .4-1.4 5.2 1 8 1.4 8.8 4.1 8.8 2.2 0 2.4.4 2.4 5.2 0 2.9-.3 7-.6 9-.6 3.4-1 3.8-3.5 3.8-2.2 0-2.9.5-2.9 1.8 0 1.1-.9 4.5-2.1 7.8l-2 5.9 2.5 1.9 2.5 1.9-2.9 5.8c-3.4 6.6-4.2 7.4-6.9 6-1.6-.9-2.4-.3-5.8 4.2-2.1 2.9-4.3 5.2-4.9 5.2-.5 0-2.7-1.4-4.8-3.1l-3.7-3.1 4.9-7.5c10.3-15.8 14.3-37.5 10-54.3-6.9-27.5-27.3-47.4-54.3-52.9l-6-1.3-.3-8.3-.3-8.2 3.6.6c11 1.9 10.2 2 10.9-.8.3-1.4.8-2.6 1.1-2.6.2 0 3.3 1.1 6.8 2.4zM96.6 49.3l3.1 9.2 10.8.5 10.8.5-8.5 5.9-8.5 6 3.2 10.3c1.8 5.7 3 10.3 2.7 10.3-.3 0-2.8-1.7-5.6-3.8-2.8-2.1-6.5-4.8-8.2-6L93.3 80l-8.4 6.1c-4.6 3.3-8.5 5.6-8.7 5.1-.1-.5 1.1-5.1 2.7-10.2l2.9-9.2-8.4-6.1-8.5-6.2 10.5-.3 10.6-.3 3.1-10c1.7-5.5 3.4-9.7 3.7-9.4.4.4 2.1 4.8 3.8 9.8zM62 92c0 7.2 7.2 16.6 18.5 23.9 6.2 4 45.8 32.7 50.8 36.7.9.8 2.1 1.4 2.5 1.4 1.2.1 8.8 7 7.6 7-.6 0-1.9-.9-2.9-2s-2.4-2-3.1-2c-.7 0-1.4-.3-1.6-.8-.1-.4-3.4-2.8-7.3-5.4-3.8-2.6-14.4-9.6-23.3-15.7-15.1-10.2-19.2-12.6-17.8-10.2.3.5 16.8 12.3 36.7 26.2 19.9 14 36.4 26 36.6 26.7.3.6-.2 2.3-1.1 3.7l-1.6 2.4-44.7-28.5c-24.7-15.7-46.1-29.8-47.6-31.2-3.6-3.3-6.3-8.6-8.1-15.4-1.1-4.5-1.1-5.9.4-10.8 2.1-7 3.8-10.2 5.1-9.5.5.4.9 1.9.9 3.5zm-19 63.9c9.6 7.6 23.7 12.8 37.5 13.8 7.3.6 22-1.6 28-4.1 2.9-1.3 3.6-1.1 9.4 2.1 5.4 3.1 6 3.7 4.5 4.7-1.3 1-1.4 1.7-.6 3.3 1 1.7.6 2.2-2.6 3.8-2 .9-5 2.1-6.5 2.6-2.4.7-2.9.5-3.7-1.6-.9-2.3-.9-2.3-6.7-.9-3.2.7-7 1.6-8.5 1.9-2.2.4-2.8 1.1-2.8 3 0 2.5-.1 2.5-8 2.5h-8v-3c0-2.6-.4-3-2.7-3-1.6 0-6.1-.9-10.1-1.9-7.1-1.9-7.2-1.9-8.6 0-1.3 1.9-1.5 1.9-5.7.2-9.6-3.7-12.4-6.4-9.8-9 .7-.7.1-1.6-2.3-3.1-1.9-1.2-4.2-3-5.2-4.1-1.8-1.9-1.7-2.1 1.9-6.5 2.1-2.6 4.1-4.6 4.6-4.6s3.2 1.8 5.9 3.9zm102.1 6.8c1.3 1.6 1.2 1.7-.3.4-1.7-1.3-2.2-2.1-1.4-2.1.2 0 1 .8 1.7 1.7zm34.4 24.6c14.1 9.8 16.5 12.3 16.5 16.7 0 4.4-1.5 6-5.5 6-3.8 0-5.6-1.4-8.1-6-2.9-5.5-5.4-7.8-13.1-12.7-4-2.5-7.3-4.7-7.3-5 0-1.5 5.4-7.2 6.4-6.6.6.3 5.6 3.8 11.1 7.6z"/></svg>