<?xml version="1.0" standalone="no"?>
<!DOCTYPE svg PUBLIC "-//W3C//DTD SVG 20010904//EN"
 "http://www.w3.org/TR/2001/REC-SVG-20010904/DTD/svg10.dtd">
<svg version="1.0" xmlns="http://www.w3.org/2000/svg"
 width="222.000000pt" height="222.000000pt" viewBox="0 0 222.000000 222.000000"
 preserveAspectRatio="xMidYMid meet">
<metadata>
Created by potrace 1.11, written by Peter Selinger 2001-2013
</metadata>
<g transform="translate(0.000000,222.000000) scale(0.100000,-0.100000)"
fill="#000000" stroke="none">
<path d="M0 1110 l0 -1110 1110 0 1110 0 0 1110 0 1110 -1110 0 -1110 0 0
-1110z m1143 976 c36 -13 79 -32 96 -41 31 -16 32 -17 17 -40 -15 -23 -14 -24
37 -57 28 -18 67 -46 85 -62 32 -28 33 -28 53 -10 19 17 21 17 63 -25 24 -24
49 -54 57 -67 11 -21 10 -26 -7 -39 -19 -14 -19 -15 4 -52 13 -21 30 -55 39
-75 17 -39 31 -46 51 -26 17 17 26 4 52 -75 24 -74 22 -97 -11 -97 -19 0 -20
-4 -14 -52 10 -80 14 -88 41 -88 22 0 24 -4 24 -52 0 -29 -3 -70 -6 -90 -6
-34 -10 -38 -35 -38 -22 0 -29 -5 -29 -18 0 -11 -9 -45 -21 -78 l-20 -59 25
-19 25 -19 -29 -58 c-34 -66 -42 -74 -69 -60 -16 9 -24 3 -58 -42 -21 -29 -43
-52 -49 -52 -5 0 -27 14 -48 31 l-37 31 49 75 c103 158 143 375 100 543 -69
275 -273 474 -543 529 l-60 13 -3 83 -3 82 36 -6 c110 -19 102 -20 109 8 3 14
8 26 11 26 2 0 33 -11 68 -24z m-177 -359 l31 -92 108 -5 108 -5 -85 -59 -85
-60 32 -103 c18 -57 30 -103 27 -103 -3 0 -28 17 -56 38 -28 21 -65 48 -82 60
l-31 22 -84 -61 c-46 -33 -85 -56 -87 -51 -1 5 11 51 27 102 l29 92 -84 61
-85 62 105 3 106 3 31 100 c17 55 34 97 37 94 4 -4 21 -48 38 -98z m-346 -427
c0 -72 72 -166 185 -239 62 -40 458 -327 508 -367 9 -8 21 -14 25 -14 12 -1
88 -70 76 -70 -6 0 -19 9 -29 20 -10 11 -24 20 -31 20 -7 0 -14 3 -16 8 -1 4
-34 28 -73 54 -38 26 -144 96 -233 157 -151 102 -192 126 -178 102 3 -5 168
-123 367 -262 199 -140 364 -260 366 -267 3 -6 -2 -23 -11 -37 l-16 -24 -447
285 c-247 157 -461 298 -476 312 -36 33 -63 86 -81 154 -11 45 -11 59 4 108
21 70 38 102 51 95 5 -4 9 -19 9 -35z m-190 -639 c96 -76 237 -128 375 -138
73 -6 220 16 280 41 29 13 36 11 94 -21 54 -31 60 -37 45 -47 -13 -10 -14 -17
-6 -33 10 -17 6 -22 -26 -38 -20 -9 -50 -21 -65 -26 -24 -7 -29 -5 -37 16 -9
23 -9 23 -67 9 -32 -7 -70 -16 -85 -19 -22 -4 -28 -11 -28 -30 0 -25 -1 -25
-80 -25 l-80 0 0 30 c0 26 -4 30 -27 30 -16 0 -61 9 -101 19 -71 19 -72 19
-86 0 -13 -19 -15 -19 -57 -2 -96 37 -124 64 -98 90 7 7 1 16 -23 31 -19 12
-42 30 -52 41 -18 19 -17 21 19 65 21 26 41 46 46 46 5 0 32 -18 59 -39z
m1021 -68 c13 -16 12 -17 -3 -4 -17 13 -22 21 -14 21 2 0 10 -8 17 -17z m344
-246 c141 -98 165 -123 165 -167 0 -44 -15 -60 -55 -60 -38 0 -56 14 -81 60
-29 55 -54 78 -131 127 -40 25 -73 47 -73 50 0 15 54 72 64 66 6 -3 56 -38
111 -76z"/>
</g>
</svg>
